<svg xmlns="http://www.w3.org/2000/svg" width="1005" height="600"><rect width="1005" height="600" x="0" y="0" fill="#FFFFFF" id="background"/><g id="viz"><g transform="translate(0,0)"><g transform="translate(50,20)"><g id="Dormir" fill="#9467bd"><rect x="0.9986595174262902" y="396.66666666666663" width="105.28724626579853" height="163.33333333333337"/><rect x="107.2845653006511" y="373.33333333333337" width="105.28724626579853" height="186.66666666666663"/><rect x="213.5704710838759" y="396.66666666666663" width="105.28724626579853" height="163.33333333333337"/><rect x="319.8563768671007" y="373.33333333333337" width="105.28724626579853" height="186.66666666666663"/><rect x="426.1422826503255" y="373.33333333333337" width="105.28724626579853" height="186.66666666666663"/><rect x="532.4281884335503" y="350" width="105.28724626579853" height="210"/><rect x="638.7140942167752" y="420" width="105.28724626579853" height="140"/></g><g id="Estudiar" fill="#8c564b"><rect x="0.9986595174262902" y="326.66666666666663" width="105.28724626579853" height="70"/><rect x="107.2845653006511" y="373.33333333333337" width="105.28724626579853" height="0"/><rect x="213.5704710838759" y="396.66666666666663" width="105.28724626579853" height="0"/><rect x="319.8563768671007" y="303.33333333333337" width="105.28724626579853" height="70"/><rect x="426.1422826503255" y="373.33333333333337" width="105.28724626579853" height="0"/><rect x="532.4281884335503" y="350" width="105.28724626579853" height="0"/><rect x="638.7140942167752" y="350" width="105.28724626579853" height="70"/></g><g id="Viajar" fill="#17becf"><rect x="0.9986595174262902" y="280" width="105.28724626579853" height="46.66666666666674"/><rect x="107.2845653006511" y="326.66666666666663" width="105.28724626579853" height="46.66666666666674"/><rect x="213.5704710838759" y="326.66666666666663" width="105.28724626579853" height="70"/><rect x="319.8563768671007" y="303.33333333333337" width="105.28724626579853" height="0"/><rect x="426.1422826503255" y="373.33333333333337" width="105.28724626579853" height="0"/><rect x="532.4281884335503" y="326.66666666666663" width="105.28724626579853" height="23.333333333333258"/><rect x="638.7140942167752" y="326.66666666666663" width="105.28724626579853" height="23.333333333333258"/></g><g id="Deporte" fill="#d62728"><rect x="0.9986595174262902" y="256.6666666666667" width="105.28724626579853" height="23.333333333333258"/><rect x="107.2845653006511" y="326.66666666666663" width="105.28724626579853" height="0"/><rect x="213.5704710838759" y="326.66666666666663" width="105.28724626579853" height="0"/><rect x="319.8563768671007" y="280" width="105.28724626579853" height="23.333333333333258"/><rect x="426.1422826503255" y="350" width="105.28724626579853" height="23.333333333333258"/><rect x="532.4281884335503" y="280" width="105.28724626579853" height="46.66666666666674"/><rect x="638.7140942167752" y="280" width="105.28724626579853" height="46.66666666666674"/></g><g id="Trabajar" fill="#bcbd22"><rect x="0.9986595174262902" y="163.33333333333331" width="105.28724626579853" height="93.33333333333331"/><rect x="107.2845653006511" y="233.33333333333331" width="105.28724626579853" height="93.33333333333331"/><rect x="213.5704710838759" y="233.33333333333331" width="105.28724626579853" height="93.33333333333331"/><rect x="319.8563768671007" y="186.66666666666669" width="105.28724626579853" height="93.33333333333331"/><rect x="426.1422826503255" y="256.6666666666667" width="105.28724626579853" height="93.33333333333331"/><rect x="532.4281884335503" y="280" width="105.28724626579853" height="0"/><rect x="638.7140942167752" y="280" width="105.28724626579853" height="0"/></g><g id="Cursar" fill="#2ca02c"><rect x="0.9986595174262902" y="93.33333333333331" width="105.28724626579853" height="70"/><rect x="107.2845653006511" y="116.66666666666669" width="105.28724626579853" height="116.66666666666669"/><rect x="213.5704710838759" y="186.66666666666669" width="105.28724626579853" height="46.66666666666674"/><rect x="319.8563768671007" y="186.66666666666669" width="105.28724626579853" height="0"/><rect x="426.1422826503255" y="256.6666666666667" width="105.28724626579853" height="0"/><rect x="532.4281884335503" y="280" width="105.28724626579853" height="0"/><rect x="638.7140942167752" y="280" width="105.28724626579853" height="0"/></g><g id="Relajar" fill="#7f7f7f"><rect x="0.9986595174262902" y="70" width="105.28724626579853" height="23.333333333333258"/><rect x="107.2845653006511" y="70" width="105.28724626579853" height="46.66666666666674"/><rect x="213.5704710838759" y="140" width="105.28724626579853" height="46.66666666666674"/><rect x="319.8563768671007" y="70" width="105.28724626579853" height="116.66666666666669"/><rect x="426.1422826503255" y="186.66666666666669" width="105.28724626579853" height="70"/><rect x="532.4281884335503" y="93.33333333333331" width="105.28724626579853" height="186.66666666666663"/><rect x="638.7140942167752" y="140" width="105.28724626579853" height="140"/></g><g id="Preparación" fill="#e377c2"><rect x="0.9986595174262902" y="46.666666666666686" width="105.28724626579853" height="23.333333333333258"/><rect x="107.2845653006511" y="70" width="105.28724626579853" height="0"/><rect x="213.5704710838759" y="116.66666666666669" width="105.28724626579853" height="23.333333333333258"/><rect x="319.8563768671007" y="23.333333333333314" width="105.28724626579853" height="46.66666666666674"/><rect x="426.1422826503255" y="163.33333333333331" width="105.28724626579853" height="23.333333333333258"/><rect x="532.4281884335503" y="70" width="105.28724626579853" height="23.333333333333258"/><rect x="638.7140942167752" y="116.66666666666669" width="105.28724626579853" height="23.333333333333258"/></g><g id="Amigos/Pareja" fill="#1f77b4"><rect x="0.9986595174262902" y="0" width="105.28724626579853" height="46.66666666666674"/><rect x="107.2845653006511" y="23.333333333333314" width="105.28724626579853" height="46.66666666666674"/><rect x="213.5704710838759" y="23.333333333333314" width="105.28724626579853" height="93.33333333333331"/><rect x="319.8563768671007" y="23.333333333333314" width="105.28724626579853" height="0"/><rect x="426.1422826503255" y="23.333333333333314" width="105.28724626579853" height="140"/><rect x="532.4281884335503" y="0" width="105.28724626579853" height="70"/><rect x="638.7140942167752" y="0" width="105.28724626579853" height="116.66666666666669"/></g><g id="Comidas" fill="#ff7f0e"><rect x="0.9986595174262902" y="0" width="105.28724626579853" height="0"/><rect x="107.2845653006511" y="0" width="105.28724626579853" height="23.333333333333258"/><rect x="213.5704710838759" y="0" width="105.28724626579853" height="23.333333333333258"/><rect x="319.8563768671007" y="0" width="105.28724626579853" height="23.333333333333258"/><rect x="426.1422826503255" y="0" width="105.28724626579853" height="23.333333333333258"/><rect x="532.4281884335503" y="0" width="105.28724626579853" height="0"/><rect x="638.7140942167752" y="0" width="105.28724626579853" height="0"/></g><g id="xAxis" transform="translate(0,560)" fill="none" font-size="10" font-family="sans-serif" text-anchor="middle"><path class="domain" stroke="currentColor" d="M0,0H745"/><g class="tick" opacity="1" transform="translate(53.642282650325555,0)"><line stroke="currentColor" y2="6"/><text fill="currentColor" y="9" dy="0.71em">Lunes</text></g><g class="tick" opacity="1" transform="translate(159.92818843355036,0)"><line stroke="currentColor" y2="6"/><text fill="currentColor" y="9" dy="0.71em">Martes</text></g><g class="tick" opacity="1" transform="translate(266.21409421677515,0)"><line stroke="currentColor" y2="6"/><text fill="currentColor" y="9" dy="0.71em">Miercoles</text></g><g class="tick" opacity="1" transform="translate(372.5,0)"><line stroke="currentColor" y2="6"/><text fill="currentColor" y="9" dy="0.71em">Jueves</text></g><g class="tick" opacity="1" transform="translate(478.7859057832248,0)"><line stroke="currentColor" y2="6"/><text fill="currentColor" y="9" dy="0.71em">Viernes</text></g><g class="tick" opacity="1" transform="translate(585.0718115664496,0)"><line stroke="currentColor" y2="6"/><text fill="currentColor" y="9" dy="0.71em">Sabado</text></g><g class="tick" opacity="1" transform="translate(691.3577173496744,0)"><line stroke="currentColor" y2="6"/><text fill="currentColor" y="9" dy="0.71em">Domingo</text></g></g><g id="yAxis" fill="none" font-size="10" font-family="sans-serif" text-anchor="end"><path class="domain" stroke="currentColor" d="M0,560V0"/><g class="tick" opacity="1" transform="translate(0,560)"><line stroke="currentColor" x2="-6"/><text fill="currentColor" x="-9" dy="0.32em">0</text></g><g class="tick" opacity="1" transform="translate(0,513.3333333333333)"><line stroke="currentColor" x2="-6"/><text fill="currentColor" x="-9" dy="0.32em">2</text></g><g class="tick" opacity="1" transform="translate(0,466.6666666666667)"><line stroke="currentColor" x2="-6"/><text fill="currentColor" x="-9" dy="0.32em">4</text></g><g class="tick" opacity="1" transform="translate(0,420)"><line stroke="currentColor" x2="-6"/><text fill="currentColor" x="-9" dy="0.32em">6</text></g><g class="tick" opacity="1" transform="translate(0,373.33333333333337)"><line stroke="currentColor" x2="-6"/><text fill="currentColor" x="-9" dy="0.32em">8</text></g><g class="tick" opacity="1" transform="translate(0,326.66666666666663)"><line stroke="currentColor" x2="-6"/><text fill="currentColor" x="-9" dy="0.32em">10</text></g><g class="tick" opacity="1" transform="translate(0,280)"><line stroke="currentColor" x2="-6"/><text fill="currentColor" x="-9" dy="0.32em">12</text></g><g class="tick" opacity="1" transform="translate(0,233.33333333333331)"><line stroke="currentColor" x2="-6"/><text fill="currentColor" x="-9" dy="0.32em">14</text></g><g class="tick" opacity="1" transform="translate(0,186.66666666666669)"><line stroke="currentColor" x2="-6"/><text fill="currentColor" x="-9" dy="0.32em">16</text></g><g class="tick" opacity="1" transform="translate(0,140)"><line stroke="currentColor" x2="-6"/><text fill="currentColor" x="-9" dy="0.32em">18</text></g><g class="tick" opacity="1" transform="translate(0,93.33333333333331)"><line stroke="currentColor" x2="-6"/><text fill="currentColor" x="-9" dy="0.32em">20</text></g><g class="tick" opacity="1" transform="translate(0,46.666666666666686)"><line stroke="currentColor" x2="-6"/><text fill="currentColor" x="-9" dy="0.32em">22</text></g><g class="tick" opacity="1" transform="translate(0,0)"><line stroke="currentColor" x2="-6"/><text fill="currentColor" x="-9" dy="0.32em">24</text></g></g><text y="556" x="745" text-anchor="end" style="font-family: Arial, sans-serif; font-size: 12px; fill: rgb(123, 123, 123); font-weight: bold;">Dias</text></g><text x="4" y="4" style="font-family: Arial, sans-serif; font-size: 12px; fill: black; font-weight: bold; dominant-baseline: hanging;"/></g><g id="grid"><rect x="0" y="0" width="805" height="600" fill="none" stroke="#ccc"/></g></g><g id="legend" transform="translate(805,20)"><g transform="translate(5,0)"><g class="legendColor" transform="translate(0,0)"><g class="legendCells" transform="translate(0,16)"><g class="cell" transform="translate(0, 0)"><rect class="swatch" height="15" width="15" style="fill: rgb(31, 119, 180);"/><text class="label" transform="translate( 20, 12.5)" font-family="&quot;Arial&quot;, sans-serif" font-size="10px"><tspan x="0" dy="0em">Amigos/Pareja</tspan></text></g><g class="cell" transform="translate(0, 21)"><rect class="swatch" height="15" width="15" style="fill: rgb(255, 127, 14);"/><text class="label" transform="translate( 20, 12.5)" font-family="&quot;Arial&quot;, sans-serif" font-size="10px"><tspan x="0" dy="0em">Comidas</tspan></text></g><g class="cell" transform="translate(0, 42)"><rect class="swatch" height="15" width="15" style="fill: rgb(44, 160, 44);"/><text class="label" transform="translate( 20, 12.5)" font-family="&quot;Arial&quot;, sans-serif" font-size="10px"><tspan x="0" dy="0em">Cursar</tspan></text></g><g class="cell" transform="translate(0, 63)"><rect class="swatch" height="15" width="15" style="fill: rgb(214, 39, 40);"/><text class="label" transform="translate( 20, 12.5)" font-family="&quot;Arial&quot;, sans-serif" font-size="10px"><tspan x="0" dy="0em">Deporte</tspan></text></g><g class="cell" transform="translate(0, 84)"><rect class="swatch" height="15" width="15" style="fill: rgb(148, 103, 189);"/><text class="label" transform="translate( 20, 12.5)" font-family="&quot;Arial&quot;, sans-serif" font-size="10px"><tspan x="0" dy="0em">Dormir</tspan></text></g><g class="cell" transform="translate(0, 105)"><rect class="swatch" height="15" width="15" style="fill: rgb(140, 86, 75);"/><text class="label" transform="translate( 20, 12.5)" font-family="&quot;Arial&quot;, sans-serif" font-size="10px"><tspan x="0" dy="0em">Estudiar</tspan></text></g><g class="cell" transform="translate(0, 126)"><rect class="swatch" height="15" width="15" style="fill: rgb(227, 119, 194);"/><text class="label" transform="translate( 20, 12.5)" font-family="&quot;Arial&quot;, sans-serif" font-size="10px"><tspan x="0" dy="0em">Preparación</tspan></text></g><g class="cell" transform="translate(0, 147)"><rect class="swatch" height="15" width="15" style="fill: rgb(127, 127, 127);"/><text class="label" transform="translate( 20, 12.5)" font-family="&quot;Arial&quot;, sans-serif" font-size="10px"><tspan x="0" dy="0em">Relajar</tspan></text></g><g class="cell" transform="translate(0, 168)"><rect class="swatch" height="15" width="15" style="fill: rgb(188, 189, 34);"/><text class="label" transform="translate( 20, 12.5)" font-family="&quot;Arial&quot;, sans-serif" font-size="10px"><tspan x="0" dy="0em">Trabajar</tspan></text></g><g class="cell" transform="translate(0, 189)"><rect class="swatch" height="15" width="15" style="fill: rgb(23, 190, 207);"/><text class="label" transform="translate( 20, 12.5)" font-family="&quot;Arial&quot;, sans-serif" font-size="10px"><tspan x="0" dy="0em">Viajar</tspan></text></g></g><text class="legendTitle" font-family="&quot;Arial&quot;, sans-serif" font-size="12px" font-weight="bold"><tspan x="0" dy="0em">Colors</tspan></text></g></g></g></svg>