<svg xmlns="http://www.w3.org/2000/svg" width="1400" height="600"><rect width="1400" height="600" x="0" y="0" fill="#FFFFFF" id="background"/><g id="viz"><g transform="translate(0,0)"><g transform="translate(10,20)"><g><path fill="#d62728" d="M0,56.00000000000003C11.346153846153847,56.00000000000003,11.346153846153847,126.00000000000003,22.692307692307693,126.00000000000003C34.03846153846154,126.00000000000003,34.03846153846154,53.49999999999997,45.38461538461539,53.49999999999997C56.73076923076923,53.49999999999997,56.73076923076923,81.5,68.07692307692308,81.5C79.42307692307693,81.5,79.42307692307693,102.49999999999999,90.76923076923077,102.49999999999999C102.11538461538461,102.49999999999999,102.11538461538461,258.5,113.46153846153847,258.5C124.80769230769232,258.5,124.80769230769232,60.500000000000014,136.15384615384616,60.500000000000014C147.5,60.500000000000014,147.5,70.99999999999997,158.84615384615384,70.99999999999997C170.19230769230768,70.99999999999997,170.19230769230768,127.00000000000003,181.53846153846155,127.00000000000003C192.8846153846154,127.00000000000003,192.8846153846154,113.00000000000001,204.23076923076923,113.00000000000001C215.5769230769231,113.00000000000001,215.5769230769231,21.000000000000025,226.92307692307693,21.000000000000025C238.26923076923077,21.000000000000025,238.26923076923077,20.000000000000025,249.6153846153846,20.000000000000025C260.96153846153845,20.000000000000025,260.96153846153845,23.500000000000014,272.3076923076923,23.500000000000014C283.6538461538462,23.500000000000014,283.6538461538462,65.49999999999999,295,65.49999999999999C306.3461538461538,65.49999999999999,306.3461538461538,51.49999999999997,317.6923076923077,51.49999999999997C329.03846153846155,51.49999999999997,329.03846153846155,51.49999999999997,340.38461538461536,51.49999999999997C351.7307692307692,51.49999999999997,351.7307692307692,33.99999999999997,363.0769230769231,33.99999999999997C374.4230769230769,33.99999999999997,374.4230769230769,12.999999999999986,385.7692307692308,12.999999999999986C397.11538461538464,12.999999999999986,397.11538461538464,62,408.46153846153845,62C419.80769230769226,62,419.80769230769226,41.000000000000014,431.15384615384613,41.000000000000014C442.5,41.000000000000014,442.5,124.49999999999997,453.84615384615387,124.49999999999997C465.19230769230774,124.49999999999997,465.19230769230774,172.5,476.53846153846155,172.5C487.88461538461536,172.5,487.88461538461536,75.50000000000003,499.2307692307692,75.50000000000003C510.5769230769231,75.50000000000003,510.5769230769231,279.5,521.9230769230769,279.5C533.2692307692307,279.5,533.2692307692307,299.5,544.6153846153846,299.5C555.9615384615386,299.5,555.9615384615386,53.49999999999997,567.3076923076924,53.49999999999997C578.6538461538462,53.49999999999997,578.6538461538462,79.00000000000001,590,79.00000000000001C601.3461538461538,79.00000000000001,601.3461538461538,36.99999999999997,612.6923076923077,36.99999999999997C624.0384615384615,36.99999999999997,624.0384615384615,23.000000000000025,635.3846153846154,23.000000000000025C646.7307692307693,23.000000000000025,646.7307692307693,56.00000000000003,658.0769230769231,56.00000000000003C669.4230769230769,56.00000000000003,669.4230769230769,34.99999999999997,680.7692307692307,34.99999999999997C692.1153846153845,34.99999999999997,692.1153846153845,56.00000000000003,703.4615384615385,56.00000000000003C714.8076923076924,56.00000000000003,714.8076923076924,70.99999999999997,726.1538461538462,70.99999999999997C737.5,70.99999999999997,737.5,54.49999999999997,748.8461538461538,54.49999999999997C760.1923076923076,54.49999999999997,760.1923076923076,67.49999999999999,771.5384615384615,67.49999999999999C782.8846153846155,67.49999999999999,782.8846153846155,49.999999999999986,794.2307692307693,49.999999999999986C805.5769230769231,49.999999999999986,805.5769230769231,134,816.9230769230769,134C828.2692307692307,134,828.2692307692307,109.50000000000003,839.6153846153846,109.50000000000003C850.9615384615385,109.50000000000003,850.9615384615385,67.49999999999999,862.3076923076923,67.49999999999999C873.6538461538462,67.49999999999999,873.6538461538462,92.00000000000003,885,92.00000000000003C896.3461538461538,92.00000000000003,896.3461538461538,93.00000000000003,907.6923076923077,93.00000000000003C919.0384615384615,93.00000000000003,919.0384615384615,47.5,930.3846153846154,47.5C941.7307692307693,47.5,941.7307692307693,50.999999999999986,953.0769230769231,50.999999999999986C964.4230769230769,50.999999999999986,964.4230769230769,49.999999999999986,975.7692307692307,49.999999999999986C987.1153846153845,49.999999999999986,987.1153846153845,88.49999999999997,998.4615384615385,88.49999999999997C1009.8076923076924,88.49999999999997,1009.8076923076924,93.00000000000003,1021.1538461538462,93.00000000000003C1032.5,93.00000000000003,1032.5,65,1043.8461538461538,65C1055.1923076923076,65,1055.1923076923076,43.000000000000014,1066.5384615384617,43.000000000000014C1077.8846153846155,43.000000000000014,1077.8846153846155,42.000000000000014,1089.2307692307693,42.000000000000014C1100.576923076923,42.000000000000014,1100.576923076923,38.50000000000003,1111.923076923077,38.50000000000003C1123.269230769231,38.50000000000003,1123.269230769231,277.5,1134.6153846153848,277.5C1145.9615384615386,277.5,1145.9615384615386,82.5,1157.3076923076922,82.5C1168.6538461538462,82.5,1168.6538461538462,491.5,1180,491.5L1180,519.5C1168.6538461538462,519.5,1168.6538461538462,275,1157.3076923076922,275C1145.9615384615386,275,1145.9615384615386,473.5,1134.6153846153848,473.5C1123.269230769231,473.5,1123.269230769231,234.5,1111.923076923077,234.5C1100.576923076923,234.5,1100.576923076923,255.5,1089.2307692307693,255.5C1077.8846153846155,255.5,1077.8846153846155,239,1066.5384615384617,239C1055.1923076923076,239,1055.1923076923076,236.5,1043.8461538461538,236.5C1032.5,236.5,1032.5,289,1021.1538461538462,289C1009.8076923076924,289,1009.8076923076924,305.5,998.4615384615385,305.5C987.1153846153845,305.5,987.1153846153845,256.5,975.7692307692307,256.5C964.4230769230769,256.5,964.4230769230769,257.5,953.0769230769231,257.5C941.7307692307693,257.5,941.7307692307693,240,930.3846153846154,240C919.0384615384615,240,919.0384615384615,282,907.6923076923077,282C896.3461538461538,282,896.3461538461538,295,885,295C873.6538461538462,295,873.6538461538462,260,862.3076923076923,260C850.9615384615385,260,850.9615384615385,305.5,839.6153846153846,305.5C828.2692307692307,305.5,828.2692307692307,340.5,816.9230769230769,340.5C805.5769230769231,340.5,805.5769230769231,239,794.2307692307693,239C782.8846153846155,239,782.8846153846155,249.50000000000003,771.5384615384615,249.50000000000003C760.1923076923076,249.50000000000003,760.1923076923076,226,748.8461538461538,226C737.5,226,737.5,253,726.1538461538462,253C714.8076923076924,253,714.8076923076924,231.00000000000003,703.4615384615385,231.00000000000003C692.1153846153845,231.00000000000003,692.1153846153845,213.50000000000003,680.7692307692307,213.50000000000003C669.4230769230769,213.50000000000003,669.4230769230769,238,658.0769230769231,238C646.7307692307693,238,646.7307692307693,219,635.3846153846154,219C624.0384615384615,219,624.0384615384615,236.5,612.6923076923077,236.5C601.3461538461538,236.5,601.3461538461538,278.5,590,278.5C578.6538461538462,278.5,578.6538461538462,200.5,567.3076923076924,200.5C555.9615384615386,200.5,555.9615384615386,530.5,544.6153846153846,530.5C533.2692307692307,530.5,533.2692307692307,465,521.9230769230769,465C510.5769230769231,465,510.5769230769231,268,499.2307692307692,268C487.88461538461536,268,487.88461538461536,400,476.53846153846155,400C465.19230769230774,400,465.19230769230774,331,453.84615384615387,331C442.5,331,442.5,223,431.15384615384613,223C419.80769230769226,223,419.80769230769226,191.49999999999997,408.46153846153845,191.49999999999997C397.11538461538464,191.49999999999997,397.11538461538464,212.50000000000003,385.7692307692308,212.50000000000003C374.4230769230769,212.50000000000003,374.4230769230769,237,363.0769230769231,237C351.7307692307692,237,351.7307692307692,275.5,340.38461538461536,275.5C329.03846153846155,275.5,329.03846153846155,243.99999999999997,317.6923076923077,243.99999999999997C306.3461538461538,243.99999999999997,306.3461538461538,233.5,295,233.5C283.6538461538462,233.5,283.6538461538462,198.5,272.3076923076923,198.5C260.96153846153845,198.5,260.96153846153845,181,249.6153846153846,181C238.26923076923077,181,238.26923076923077,196.00000000000003,226.92307692307693,196.00000000000003C215.5769230769231,196.00000000000003,215.5769230769231,291.5,204.23076923076923,291.5C192.8846153846154,291.5,192.8846153846154,295,181.53846153846155,295C170.19230769230768,295,170.19230769230768,256.5,158.84615384615384,256.5C147.5,256.5,147.5,218,136.15384615384616,218C124.80769230769232,218,124.80769230769232,412.5,113.46153846153847,412.5C102.11538461538461,412.5,102.11538461538461,242.5,90.76923076923077,242.5C79.42307692307693,242.5,79.42307692307693,270.5,68.07692307692308,270.5C56.73076923076923,270.5,56.73076923076923,232.00000000000003,45.38461538461539,232.00000000000003C34.03846153846154,232.00000000000003,34.03846153846154,304.5,22.692307692307693,304.5C11.346153846153847,304.5,11.346153846153847,248.50000000000003,0,248.50000000000003Z"><title>Dormir</title></path><path fill="#2ca02c" d="M0,331C11.346153846153847,331,11.346153846153847,305.5,22.692307692307693,305.5C34.03846153846154,305.5,34.03846153846154,233.00000000000003,45.38461538461539,233.00000000000003C56.73076923076923,233.00000000000003,56.73076923076923,271.5,68.07692307692308,271.5C79.42307692307693,271.5,79.42307692307693,497.5,90.76923076923077,497.5C102.11538461538461,497.5,102.11538461538461,560,113.46153846153847,560C124.80769230769232,560,124.80769230769232,560,136.15384615384616,560C147.5,560,147.5,360,158.84615384615384,360C170.19230769230768,360,170.19230769230768,296,181.53846153846155,296C192.8846153846154,296,192.8846153846154,292.5,204.23076923076923,292.5C215.5769230769231,292.5,215.5769230769231,197.00000000000003,226.92307692307693,197.00000000000003C238.26923076923077,197.00000000000003,238.26923076923077,182,249.6153846153846,182C260.96153846153845,182,260.96153846153845,199.5,272.3076923076923,199.5C283.6538461538462,199.5,283.6538461538462,234.5,295,234.5C306.3461538461538,234.5,306.3461538461538,244.99999999999997,317.6923076923077,244.99999999999997C329.03846153846155,244.99999999999997,329.03846153846155,483.5,340.38461538461536,483.5C351.7307692307692,483.5,351.7307692307692,411.5,363.0769230769231,411.5C374.4230769230769,411.5,374.4230769230769,431,385.7692307692308,431C397.11538461538464,431,397.11538461538464,526.5,408.46153846153845,526.5C419.80769230769226,526.5,419.80769230769226,549.5,431.15384615384613,549.5C442.5,549.5,442.5,560,453.84615384615387,560C465.19230769230774,560,465.19230769230774,560,476.53846153846155,560C487.88461538461536,560,487.88461538461536,560,499.2307692307692,560C510.5769230769231,560,510.5769230769231,560,521.9230769230769,560C533.2692307692307,560,533.2692307692307,560,544.6153846153846,560C555.9615384615386,560,555.9615384615386,560,567.3076923076924,560C578.6538461538462,560,578.6538461538462,560,590,560C601.3461538461538,560,601.3461538461538,560,612.6923076923077,560C624.0384615384615,560,624.0384615384615,560,635.3846153846154,560C646.7307692307693,560,646.7307692307693,560,658.0769230769231,560C669.4230769230769,560,669.4230769230769,310,680.7692307692307,310C692.1153846153845,310,692.1153846153845,232.00000000000003,703.4615384615385,232.00000000000003C714.8076923076924,232.00000000000003,714.8076923076924,533.5,726.1538461538462,533.5C737.5,533.5,737.5,506.5,748.8461538461538,506.5C760.1923076923076,506.5,760.1923076923076,538,771.5384615384615,538C782.8846153846155,538,782.8846153846155,545,794.2307692307693,545C805.5769230769231,545,805.5769230769231,560,816.9230769230769,560C828.2692307692307,560,828.2692307692307,546,839.6153846153846,546C850.9615384615385,546,850.9615384615385,480,862.3076923076923,480C873.6538461538462,480,873.6538461538462,555.5,885,555.5C896.3461538461538,555.5,896.3461538461538,560,907.6923076923077,560C919.0384615384615,560,919.0384615384615,560,930.3846153846154,560C941.7307692307693,560,941.7307692307693,548.5,953.0769230769231,548.5C964.4230769230769,548.5,964.4230769230769,547.5,975.7692307692307,547.5C987.1153846153845,547.5,987.1153846153845,556.5,998.4615384615385,556.5C1009.8076923076924,556.5,1009.8076923076924,555.5,1021.1538461538462,555.5C1032.5,555.5,1032.5,520.5,1043.8461538461538,520.5C1055.1923076923076,520.5,1055.1923076923076,526.5,1066.5384615384617,526.5C1077.8846153846155,526.5,1077.8846153846155,560,1089.2307692307693,560C1100.576923076923,560,1100.576923076923,543,1111.923076923077,543C1123.269230769231,543,1123.269230769231,539.5,1134.6153846153848,539.5C1145.9615384615386,539.5,1145.9615384615386,560,1157.3076923076922,560C1168.6538461538462,560,1168.6538461538462,560,1180,560L1180,560C1168.6538461538462,560,1168.6538461538462,560,1157.3076923076922,560C1145.9615384615386,560,1145.9615384615386,550,1134.6153846153848,550C1123.269230769231,550,1123.269230769231,553.5,1111.923076923077,553.5C1100.576923076923,553.5,1100.576923076923,560,1089.2307692307693,560C1077.8846153846155,560,1077.8846153846155,558,1066.5384615384617,558C1055.1923076923076,558,1055.1923076923076,552,1043.8461538461538,552C1032.5,552,1032.5,559,1021.1538461538462,559C1009.8076923076924,559,1009.8076923076924,560,998.4615384615385,560C987.1153846153845,560,987.1153846153845,554.5,975.7692307692307,554.5C964.4230769230769,554.5,964.4230769230769,555.5,953.0769230769231,555.5C941.7307692307693,555.5,941.7307692307693,560,930.3846153846154,560C919.0384615384615,560,919.0384615384615,560,907.6923076923077,560C896.3461538461538,560,896.3461538461538,559,885,559C873.6538461538462,559,873.6538461538462,511.5,862.3076923076923,511.5C850.9615384615385,511.5,850.9615384615385,560,839.6153846153846,560C828.2692307692307,560,828.2692307692307,560,816.9230769230769,560C805.5769230769231,560,805.5769230769231,555.5,794.2307692307693,555.5C782.8846153846155,555.5,782.8846153846155,559,771.5384615384615,559C760.1923076923076,559,760.1923076923076,541.5,748.8461538461538,541.5C737.5,541.5,737.5,547.5,726.1538461538462,547.5C714.8076923076924,547.5,714.8076923076924,316,703.4615384615385,316C692.1153846153845,316,692.1153846153845,394,680.7692307692307,394C669.4230769230769,394,669.4230769230769,560,658.0769230769231,560C646.7307692307693,560,646.7307692307693,560,635.3846153846154,560C624.0384615384615,560,624.0384615384615,560,612.6923076923077,560C601.3461538461538,560,601.3461538461538,560,590,560C578.6538461538462,560,578.6538461538462,560,567.3076923076924,560C555.9615384615386,560,555.9615384615386,560,544.6153846153846,560C533.2692307692307,560,533.2692307692307,560,521.9230769230769,560C510.5769230769231,560,510.5769230769231,560,499.2307692307692,560C487.88461538461536,560,487.88461538461536,560,476.53846153846155,560C465.19230769230774,560,465.19230769230774,560,453.84615384615387,560C442.5,560,442.5,560,431.15384615384613,560C419.80769230769226,560,419.80769230769226,551,408.46153846153845,551C397.11538461538464,551,397.11538461538464,476.5,385.7692307692308,476.5C374.4230769230769,476.5,374.4230769230769,464,363.0769230769231,464C351.7307692307692,464,351.7307692307692,515,340.38461538461536,515C329.03846153846155,515,329.03846153846155,332.5,317.6923076923077,332.5C306.3461538461538,332.5,306.3461538461538,378,295,378C283.6538461538462,378,283.6538461538462,367.5,272.3076923076923,367.5C260.96153846153845,367.5,260.96153846153845,336,249.6153846153846,336C238.26923076923077,336,238.26923076923077,319.5,226.92307692307693,319.5C215.5769230769231,319.5,215.5769230769231,432.5,204.23076923076923,432.5C192.8846153846154,432.5,192.8846153846154,422,181.53846153846155,422C170.19230769230768,422,170.19230769230768,437,158.84615384615384,437C147.5,437,147.5,560,136.15384615384616,560C124.80769230769232,560,124.80769230769232,560,113.46153846153847,560C102.11538461538461,560,102.11538461538461,525.5,90.76923076923077,525.5C79.42307692307693,525.5,79.42307692307693,401,68.07692307692308,401C56.73076923076923,401,56.73076923076923,327.5,45.38461538461539,327.5C34.03846153846154,327.5,34.03846153846154,400,22.692307692307693,400C11.346153846153847,400,11.346153846153847,397.5,0,397.5Z"><title>Colegio</title></path><path fill="#9467bd" d="M0,560C11.346153846153847,560,11.346153846153847,560,22.692307692307693,560C34.03846153846154,560,34.03846153846154,560,45.38461538461539,560C56.73076923076923,560,56.73076923076923,560,68.07692307692308,560C79.42307692307693,560,79.42307692307693,560,90.76923076923077,560C102.11538461538461,560,102.11538461538461,560,113.46153846153847,560C124.80769230769232,560,124.80769230769232,559,136.15384615384616,559C147.5,559,147.5,560,158.84615384615384,560C170.19230769230768,560,170.19230769230768,560,181.53846153846155,560C192.8846153846154,560,192.8846153846154,560,204.23076923076923,560C215.5769230769231,560,215.5769230769231,560,226.92307692307693,560C238.26923076923077,560,238.26923076923077,554.5,249.6153846153846,554.5C260.96153846153845,554.5,260.96153846153845,560,272.3076923076923,560C283.6538461538462,560,283.6538461538462,553,295,553C306.3461538461538,553,306.3461538461538,556.5,317.6923076923077,556.5C329.03846153846155,556.5,329.03846153846155,538,340.38461538461536,538C351.7307692307692,538,351.7307692307692,549.5,363.0769230769231,549.5C374.4230769230769,549.5,374.4230769230769,384.5,385.7692307692308,384.5C397.11538461538464,384.5,397.11538461538464,501,408.46153846153845,501C419.80769230769226,501,419.80769230769226,516,431.15384615384613,516C442.5,516,442.5,560,453.84615384615387,560C465.19230769230774,560,465.19230769230774,560,476.53846153846155,560C487.88461538461536,560,487.88461538461536,560,499.2307692307692,560C510.5769230769231,560,510.5769230769231,560,521.9230769230769,560C533.2692307692307,560,533.2692307692307,560,544.6153846153846,560C555.9615384615386,560,555.9615384615386,560,567.3076923076924,560C578.6538461538462,560,578.6538461538462,560,590,560C601.3461538461538,560,601.3461538461538,560,612.6923076923077,560C624.0384615384615,560,624.0384615384615,560,635.3846153846154,560C646.7307692307693,560,646.7307692307693,559,658.0769230769231,559C669.4230769230769,559,669.4230769230769,524,680.7692307692307,524C692.1153846153845,524,692.1153846153845,498.5,703.4615384615385,498.5C714.8076923076924,498.5,714.8076923076924,360,726.1538461538462,360C737.5,360,737.5,428.5,748.8461538461538,428.5C760.1923076923076,428.5,760.1923076923076,250.50000000000003,771.5384615384615,250.50000000000003C782.8846153846155,250.50000000000003,782.8846153846155,360,794.2307692307693,360C805.5769230769231,360,805.5769230769231,440.5,816.9230769230769,440.5C828.2692307692307,440.5,828.2692307692307,433.5,839.6153846153846,433.5C850.9615384615385,433.5,850.9615384615385,370.5,862.3076923076923,370.5C873.6538461538462,370.5,873.6538461538462,487,885,487C896.3461538461538,487,896.3461538461538,481,907.6923076923077,481C919.0384615384615,481,919.0384615384615,484.5,930.3846153846154,484.5C941.7307692307693,484.5,941.7307692307693,467,953.0769230769231,467C964.4230769230769,467,964.4230769230769,381,975.7692307692307,381C987.1153846153845,381,987.1153846153845,430,998.4615384615385,430C1009.8076923076924,430,1009.8076923076924,290,1021.1538461538462,290C1032.5,290,1032.5,237.5,1043.8461538461538,237.5C1055.1923076923076,237.5,1055.1923076923076,462.5,1066.5384615384617,462.5C1077.8846153846155,462.5,1077.8846153846155,397.5,1089.2307692307693,397.5C1100.576923076923,397.5,1100.576923076923,380,1111.923076923077,380C1123.269230769231,380,1123.269230769231,551,1134.6153846153848,551C1145.9615384615386,551,1145.9615384615386,560,1157.3076923076922,560C1168.6538461538462,560,1168.6538461538462,560,1180,560L1180,560C1168.6538461538462,560,1168.6538461538462,560,1157.3076923076922,560C1145.9615384615386,560,1145.9615384615386,558,1134.6153846153848,558C1123.269230769231,558,1123.269230769231,471,1111.923076923077,471C1100.576923076923,471,1100.576923076923,471,1089.2307692307693,471C1077.8846153846155,471,1077.8846153846155,525.5,1066.5384615384617,525.5C1055.1923076923076,525.5,1055.1923076923076,377.5,1043.8461538461538,377.5C1032.5,377.5,1032.5,409,1021.1538461538462,409C1009.8076923076924,409,1009.8076923076924,489.5,998.4615384615385,489.5C987.1153846153845,489.5,987.1153846153845,465,975.7692307692307,465C964.4230769230769,465,964.4230769230769,547.5,953.0769230769231,547.5C941.7307692307693,547.5,941.7307692307693,554.5,930.3846153846154,554.5C919.0384615384615,554.5,919.0384615384615,533.5,907.6923076923077,533.5C896.3461538461538,533.5,896.3461538461538,543,885,543C873.6538461538462,543,873.6538461538462,479,862.3076923076923,479C850.9615384615385,479,850.9615384615385,472,839.6153846153846,472C828.2692307692307,472,828.2692307692307,528,816.9230769230769,528C805.5769230769231,528,805.5769230769231,447.5,794.2307692307693,447.5C782.8846153846155,447.5,782.8846153846155,359,771.5384615384615,359C760.1923076923076,359,760.1923076923076,505.5,748.8461538461538,505.5C737.5,505.5,737.5,461.5,726.1538461538462,461.5C714.8076923076924,461.5,714.8076923076924,530,703.4615384615385,530C692.1153846153845,530,692.1153846153845,559,680.7692307692307,559C669.4230769230769,559,669.4230769230769,559,658.0769230769231,559C646.7307692307693,559,646.7307692307693,560,635.3846153846154,560C624.0384615384615,560,624.0384615384615,560,612.6923076923077,560C601.3461538461538,560,601.3461538461538,560,590,560C578.6538461538462,560,578.6538461538462,560,567.3076923076924,560C555.9615384615386,560,555.9615384615386,560,544.6153846153846,560C533.2692307692307,560,533.2692307692307,560,521.9230769230769,560C510.5769230769231,560,510.5769230769231,560,499.2307692307692,560C487.88461538461536,560,487.88461538461536,560,476.53846153846155,560C465.19230769230774,560,465.19230769230774,560,453.84615384615387,560C442.5,560,442.5,533.5,431.15384615384613,533.5C419.80769230769226,533.5,419.80769230769226,525.5,408.46153846153845,525.5C397.11538461538464,525.5,397.11538461538464,430,385.7692307692308,430C374.4230769230769,430,374.4230769230769,560,363.0769230769231,560C351.7307692307692,560,351.7307692307692,552,340.38461538461536,552C329.03846153846155,552,329.03846153846155,560,317.6923076923077,560C306.3461538461538,560,306.3461538461538,560,295,560C283.6538461538462,560,283.6538461538462,560,272.3076923076923,560C260.96153846153845,560,260.96153846153845,558,249.6153846153846,558C238.26923076923077,558,238.26923076923077,560,226.92307692307693,560C215.5769230769231,560,215.5769230769231,560,204.23076923076923,560C192.8846153846154,560,192.8846153846154,560,181.53846153846155,560C170.19230769230768,560,170.19230769230768,560,158.84615384615384,560C147.5,560,147.5,559,136.15384615384616,559C124.80769230769232,559,124.80769230769232,560,113.46153846153847,560C102.11538461538461,560,102.11538461538461,560,90.76923076923077,560C79.42307692307693,560,79.42307692307693,560,68.07692307692308,560C56.73076923076923,560,56.73076923076923,560,45.38461538461539,560C34.03846153846154,560,34.03846153846154,560,22.692307692307693,560C11.346153846153847,560,11.346153846153847,560,0,560Z"><title>Estudio</title></path><path fill="#8c564b" d="M0,398.5C11.346153846153847,398.5,11.346153846153847,538,22.692307692307693,538C34.03846153846154,538,34.03846153846154,482,45.38461538461539,482C56.73076923076923,482,56.73076923076923,548.5,68.07692307692308,548.5C79.42307692307693,548.5,79.42307692307693,556.5,90.76923076923077,556.5C102.11538461538461,556.5,102.11538461538461,560,113.46153846153847,560C124.80769230769232,560,124.80769230769232,531,136.15384615384616,531C147.5,531,147.5,520.5,158.84615384615384,520.5C170.19230769230768,520.5,170.19230769230768,560,181.53846153846155,560C192.8846153846154,560,192.8846153846154,552,204.23076923076923,552C215.5769230769231,552,215.5769230769231,541.5,226.92307692307693,541.5C238.26923076923077,541.5,238.26923076923077,560,249.6153846153846,560C260.96153846153845,560,260.96153846153845,515,272.3076923076923,515C283.6538461538462,515,283.6538461538462,508,295,508C306.3461538461538,508,306.3461538461538,458,317.6923076923077,458C329.03846153846155,458,329.03846153846155,553,340.38461538461536,553C351.7307692307692,553,351.7307692307692,516,363.0769230769231,516C374.4230769230769,516,374.4230769230769,506.5,385.7692307692308,506.5C397.11538461538464,506.5,397.11538461538464,560,408.46153846153845,560C419.80769230769226,560,419.80769230769226,534.5,431.15384615384613,534.5C442.5,534.5,442.5,549.5,453.84615384615387,549.5C465.19230769230774,549.5,465.19230769230774,554.5,476.53846153846155,554.5C487.88461538461536,554.5,487.88461538461536,560,499.2307692307692,560C510.5769230769231,560,510.5769230769231,560,521.9230769230769,560C533.2692307692307,560,533.2692307692307,560,544.6153846153846,560C555.9615384615386,560,555.9615384615386,556.5,567.3076923076924,556.5C578.6538461538462,556.5,578.6538461538462,560,590,560C601.3461538461538,560,601.3461538461538,560,612.6923076923077,560C624.0384615384615,560,624.0384615384615,560,635.3846153846154,560C646.7307692307693,560,646.7307692307693,558,658.0769230769231,558C669.4230769230769,558,669.4230769230769,560,680.7692307692307,560C692.1153846153845,560,692.1153846153845,560,703.4615384615385,560C714.8076923076924,560,714.8076923076924,560,726.1538461538462,560C737.5,560,737.5,560,748.8461538461538,560C760.1923076923076,560,760.1923076923076,560,771.5384615384615,560C782.8846153846155,560,782.8846153846155,560,794.2307692307693,560C805.5769230769231,560,805.5769230769231,559,816.9230769230769,559C828.2692307692307,559,828.2692307692307,560,839.6153846153846,560C850.9615384615385,560,850.9615384615385,560,862.3076923076923,560C873.6538461538462,560,873.6538461538462,560,885,560C896.3461538461538,560,896.3461538461538,560,907.6923076923077,560C919.0384615384615,560,919.0384615384615,559,930.3846153846154,559C941.7307692307693,559,941.7307692307693,560,953.0769230769231,560C964.4230769230769,560,964.4230769230769,560,975.7692307692307,560C987.1153846153845,560,987.1153846153845,560,998.4615384615385,560C1009.8076923076924,560,1009.8076923076924,560,1021.1538461538462,560C1032.5,560,1032.5,560,1043.8461538461538,560C1055.1923076923076,560,1055.1923076923076,560,1066.5384615384617,560C1077.8846153846155,560,1077.8846153846155,559,1089.2307692307693,559C1100.576923076923,559,1100.576923076923,560,1111.923076923077,560C1123.269230769231,560,1123.269230769231,560,1134.6153846153848,560C1145.9615384615386,560,1145.9615384615386,560,1157.3076923076922,560C1168.6538461538462,560,1168.6538461538462,560,1180,560L1180,560C1168.6538461538462,560,1168.6538461538462,560,1157.3076923076922,560C1145.9615384615386,560,1145.9615384615386,560,1134.6153846153848,560C1123.269230769231,560,1123.269230769231,560,1111.923076923077,560C1100.576923076923,560,1100.576923076923,559,1089.2307692307693,559C1077.8846153846155,559,1077.8846153846155,560,1066.5384615384617,560C1055.1923076923076,560,1055.1923076923076,560,1043.8461538461538,560C1032.5,560,1032.5,560,1021.1538461538462,560C1009.8076923076924,560,1009.8076923076924,560,998.4615384615385,560C987.1153846153845,560,987.1153846153845,560,975.7692307692307,560C964.4230769230769,560,964.4230769230769,560,953.0769230769231,560C941.7307692307693,560,941.7307692307693,559,930.3846153846154,559C919.0384615384615,559,919.0384615384615,560,907.6923076923077,560C896.3461538461538,560,896.3461538461538,560,885,560C873.6538461538462,560,873.6538461538462,560,862.3076923076923,560C850.9615384615385,560,850.9615384615385,560,839.6153846153846,560C828.2692307692307,560,828.2692307692307,559,816.9230769230769,559C805.5769230769231,559,805.5769230769231,560,794.2307692307693,560C782.8846153846155,560,782.8846153846155,560,771.5384615384615,560C760.1923076923076,560,760.1923076923076,560,748.8461538461538,560C737.5,560,737.5,560,726.1538461538462,560C714.8076923076924,560,714.8076923076924,560,703.4615384615385,560C692.1153846153845,560,692.1153846153845,560,680.7692307692307,560C669.4230769230769,560,669.4230769230769,558,658.0769230769231,558C646.7307692307693,558,646.7307692307693,560,635.3846153846154,560C624.0384615384615,560,624.0384615384615,560,612.6923076923077,560C601.3461538461538,560,601.3461538461538,560,590,560C578.6538461538462,560,578.6538461538462,560,567.3076923076924,560C555.9615384615386,560,555.9615384615386,560,544.6153846153846,560C533.2692307692307,560,533.2692307692307,560,521.9230769230769,560C510.5769230769231,560,510.5769230769231,560,499.2307692307692,560C487.88461538461536,560,487.88461538461536,558,476.53846153846155,558C465.19230769230774,558,465.19230769230774,560,453.84615384615387,560C442.5,560,442.5,548.5,431.15384615384613,548.5C419.80769230769226,548.5,419.80769230769226,560,408.46153846153845,560C397.11538461538464,560,397.11538461538464,534.5,385.7692307692308,534.5C374.4230769230769,534.5,374.4230769230769,533.5,363.0769230769231,533.5C351.7307692307692,533.5,351.7307692307692,560,340.38461538461536,560C329.03846153846155,560,329.03846153846155,510.5,317.6923076923077,510.5C306.3461538461538,510.5,306.3461538461538,525.5,295,525.5C283.6538461538462,525.5,283.6538461538462,536,272.3076923076923,536C260.96153846153845,536,260.96153846153845,560,249.6153846153846,560C238.26923076923077,560,238.26923076923077,559,226.92307692307693,559C215.5769230769231,559,215.5769230769231,559,204.23076923076923,559C192.8846153846154,559,192.8846153846154,560,181.53846153846155,560C170.19230769230768,560,170.19230769230768,548.5,158.84615384615384,548.5C147.5,548.5,147.5,559,136.15384615384616,559C124.80769230769232,559,124.80769230769232,560,113.46153846153847,560C102.11538461538461,560,102.11538461538461,560,90.76923076923077,560C79.42307692307693,560,79.42307692307693,555.5,68.07692307692308,555.5C56.73076923076923,555.5,56.73076923076923,524,45.38461538461539,524C34.03846153846154,524,34.03846153846154,552,22.692307692307693,552C11.346153846153847,552,11.346153846153847,458,0,458Z"><title>Novia</title></path><path fill="#1f77b4" d="M0,249.50000000000003C11.346153846153847,249.50000000000003,11.346153846153847,487,22.692307692307693,487C34.03846153846154,487,34.03846153846154,435.5,45.38461538461539,435.5C56.73076923076923,435.5,56.73076923076923,516,68.07692307692308,516C79.42307692307693,516,79.42307692307693,243.5,90.76923076923077,243.5C102.11538461538461,243.5,102.11538461538461,61.500000000000014,113.46153846153847,61.500000000000014C124.80769230769232,61.500000000000014,124.80769230769232,219,136.15384615384616,219C147.5,219,147.5,549.5,158.84615384615384,549.5C170.19230769230768,549.5,170.19230769230768,533.5,181.53846153846155,533.5C192.8846153846154,533.5,192.8846153846154,560,204.23076923076923,560C215.5769230769231,560,215.5769230769231,512.5,226.92307692307693,512.5C238.26923076923077,512.5,238.26923076923077,337,249.6153846153846,337C260.96153846153845,337,260.96153846153845,493,272.3076923076923,493C283.6538461538462,493,283.6538461538462,526.5,295,526.5C306.3461538461538,526.5,306.3461538461538,552,317.6923076923077,552C329.03846153846155,552,329.03846153846155,451,340.38461538461536,451C351.7307692307692,451,351.7307692307692,465,363.0769230769231,465C374.4230769230769,465,374.4230769230769,338,385.7692307692308,338C397.11538461538464,338,397.11538461538464,192.49999999999997,408.46153846153845,192.49999999999997C419.80769230769226,192.49999999999997,419.80769230769226,224,431.15384615384613,224C442.5,224,442.5,463.5,453.84615384615387,463.5C465.19230769230774,463.5,465.19230769230774,560,476.53846153846155,560C487.88461538461536,560,487.88461538461536,517,499.2307692307692,517C510.5769230769231,517,510.5769230769231,30,521.9230769230769,30C533.2692307692307,30,533.2692307692307,-6,544.6153846153846,-6C555.9615384615386,-6,555.9615384615386,201.5,567.3076923076924,201.5C578.6538461538462,201.5,578.6538461538462,509,590,509C601.3461538461538,509,601.3461538461538,474,612.6923076923077,474C624.0384615384615,474,624.0384615384615,220,635.3846153846154,220C646.7307692307693,220,646.7307692307693,362.5,658.0769230769231,362.5C669.4230769230769,362.5,669.4230769230769,214.50000000000003,680.7692307692307,214.50000000000003C692.1153846153845,214.50000000000003,692.1153846153845,531,703.4615384615385,531C714.8076923076924,531,714.8076923076924,556.5,726.1538461538462,556.5C737.5,556.5,737.5,560,748.8461538461538,560C760.1923076923076,560,760.1923076923076,560,771.5384615384615,560C782.8846153846155,560,782.8846153846155,556.5,794.2307692307693,556.5C805.5769230769231,556.5,805.5769230769231,559,816.9230769230769,559C828.2692307692307,559,828.2692307692307,502,839.6153846153846,502C850.9615384615385,502,850.9615384615385,538,862.3076923076923,538C873.6538461538462,538,873.6538461538462,544,885,544C896.3461538461538,544,896.3461538461538,534.5,907.6923076923077,534.5C919.0384615384615,534.5,919.0384615384615,559,930.3846153846154,559C941.7307692307693,559,941.7307692307693,560,953.0769230769231,560C964.4230769230769,560,964.4230769230769,560,975.7692307692307,560C987.1153846153845,560,987.1153846153845,533.5,998.4615384615385,533.5C1009.8076923076924,533.5,1009.8076923076924,560,1021.1538461538462,560C1032.5,560,1032.5,553,1043.8461538461538,553C1055.1923076923076,553,1055.1923076923076,560,1066.5384615384617,560C1077.8846153846155,560,1077.8846153846155,525.5,1089.2307692307693,525.5C1100.576923076923,525.5,1100.576923076923,560,1111.923076923077,560C1123.269230769231,560,1123.269230769231,28,1134.6153846153848,28C1145.9615384615386,28,1145.9615384615386,276,1157.3076923076922,276C1168.6538461538462,276,1168.6538461538462,560,1180,560L1180,560C1168.6538461538462,560,1168.6538461538462,384.5,1157.3076923076922,384.5C1145.9615384615386,384.5,1145.9615384615386,276.5,1134.6153846153848,276.5C1123.269230769231,276.5,1123.269230769231,560,1111.923076923077,560C1100.576923076923,560,1100.576923076923,553.5,1089.2307692307693,553.5C1077.8846153846155,553.5,1077.8846153846155,560,1066.5384615384617,560C1055.1923076923076,560,1055.1923076923076,560,1043.8461538461538,560C1032.5,560,1032.5,560,1021.1538461538462,560C1009.8076923076924,560,1009.8076923076924,551,998.4615384615385,551C987.1153846153845,551,987.1153846153845,560,975.7692307692307,560C964.4230769230769,560,964.4230769230769,560,953.0769230769231,560C941.7307692307693,560,941.7307692307693,559,930.3846153846154,559C919.0384615384615,559,919.0384615384615,552,907.6923076923077,552C896.3461538461538,552,896.3461538461538,554.5,885,554.5C873.6538461538462,554.5,873.6538461538462,552,862.3076923076923,552C850.9615384615385,552,850.9615384615385,530,839.6153846153846,530C828.2692307692307,530,828.2692307692307,559,816.9230769230769,559C805.5769230769231,559,805.5769230769231,560,794.2307692307693,560C782.8846153846155,560,782.8846153846155,560,771.5384615384615,560C760.1923076923076,560,760.1923076923076,560,748.8461538461538,560C737.5,560,737.5,560,726.1538461538462,560C714.8076923076924,560,714.8076923076924,555.5,703.4615384615385,555.5C692.1153846153845,555.5,692.1153846153845,309,680.7692307692307,309C669.4230769230769,309,669.4230769230769,450,658.0769230769231,450C646.7307692307693,450,646.7307692307693,409,635.3846153846154,409C624.0384615384615,409,624.0384615384615,526.5,612.6923076923077,526.5C601.3461538461538,526.5,601.3461538461538,547.5,590,547.5C578.6538461538462,547.5,578.6538461538462,341.5,567.3076923076924,341.5C555.9615384615386,341.5,555.9615384615386,298.5,544.6153846153846,298.5C533.2692307692307,298.5,533.2692307692307,278.5,521.9230769230769,278.5C510.5769230769231,278.5,510.5769230769231,541.5,499.2307692307692,541.5C487.88461538461536,541.5,487.88461538461536,560,476.53846153846155,560C465.19230769230774,560,465.19230769230774,509,453.84615384615387,509C442.5,509,442.5,318.5,431.15384615384613,318.5C419.80769230769226,318.5,419.80769230769226,311.5,408.46153846153845,311.5C397.11538461538464,311.5,397.11538461538464,383.5,385.7692307692308,383.5C374.4230769230769,383.5,374.4230769230769,493,363.0769230769231,493C351.7307692307692,493,351.7307692307692,482.5,340.38461538461536,482.5C329.03846153846155,482.5,329.03846153846155,555.5,317.6923076923077,555.5C306.3461538461538,555.5,306.3461538461538,540.5,295,540.5C283.6538461538462,540.5,283.6538461538462,514,272.3076923076923,514C260.96153846153845,514,260.96153846153845,400,249.6153846153846,400C238.26923076923077,400,238.26923076923077,540.5,226.92307692307693,540.5C215.5769230769231,540.5,215.5769230769231,560,204.23076923076923,560C192.8846153846154,560,192.8846153846154,547.5,181.53846153846155,547.5C170.19230769230768,547.5,170.19230769230768,560,158.84615384615384,560C147.5,560,147.5,355.5,136.15384615384616,355.5C124.80769230769232,355.5,124.80769230769232,257.5,113.46153846153847,257.5C102.11538461538461,257.5,102.11538461538461,373,90.76923076923077,373C79.42307692307693,373,79.42307692307693,547.5,68.07692307692308,547.5C56.73076923076923,547.5,56.73076923076923,481,45.38461538461539,481C34.03846153846154,481,34.03846153846154,515,22.692307692307693,515C11.346153846153847,515,11.346153846153847,330,0,330Z"><title>Amigos</title></path><path fill="#bcbd22" d="M0,459C11.346153846153847,459,11.346153846153847,401,22.692307692307693,401C34.03846153846154,401,34.03846153846154,525,45.38461538461539,525C56.73076923076923,525,56.73076923076923,469.5,68.07692307692308,469.5C79.42307692307693,469.5,79.42307692307693,526.5,90.76923076923077,526.5C102.11538461538461,526.5,102.11538461538461,559,113.46153846153847,559C124.80769230769232,559,124.80769230769232,434.5,136.15384615384616,434.5C147.5,434.5,147.5,257.5,158.84615384615384,257.5C170.19230769230768,257.5,170.19230769230768,423,181.53846153846155,423C192.8846153846154,423,192.8846153846154,523,204.23076923076923,523C215.5769230769231,523,215.5769230769231,320.5,226.92307692307693,320.5C238.26923076923077,320.5,238.26923076923077,504.5,249.6153846153846,504.5C260.96153846153845,504.5,260.96153846153845,368.5,272.3076923076923,368.5C283.6538461538462,368.5,283.6538461538462,379,295,379C306.3461538461538,379,306.3461538461538,333.5,317.6923076923077,333.5C329.03846153846155,333.5,329.03846153846155,276.5,340.38461538461536,276.5C351.7307692307692,276.5,351.7307692307692,238,363.0769230769231,238C374.4230769230769,238,374.4230769230769,213.50000000000003,385.7692307692308,213.50000000000003C397.11538461538464,213.50000000000003,397.11538461538464,312.5,408.46153846153845,312.5C419.80769230769226,312.5,419.80769230769226,319.5,431.15384615384613,319.5C442.5,319.5,442.5,332,453.84615384615387,332C465.19230769230774,332,465.19230769230774,401,476.53846153846155,401C487.88461538461536,401,487.88461538461536,269,499.2307692307692,269C510.5769230769231,269,510.5769230769231,466,521.9230769230769,466C533.2692307692307,466,533.2692307692307,559,544.6153846153846,559C555.9615384615386,559,555.9615384615386,431,567.3076923076924,431C578.6538461538462,431,578.6538461538462,403,590,403C601.3461538461538,403,601.3461538461538,382,612.6923076923077,382C624.0384615384615,382,624.0384615384615,488,635.3846153846154,488C646.7307692307693,488,646.7307692307693,451,658.0769230769231,451C669.4230769230769,451,669.4230769230769,448.5,680.7692307692307,448.5C692.1153846153845,448.5,692.1153846153845,317,703.4615384615385,317C714.8076923076924,317,714.8076923076924,254,726.1538461538462,254C737.5,254,737.5,227,748.8461538461538,227C760.1923076923076,227,760.1923076923076,445,771.5384615384615,445C782.8846153846155,445,782.8846153846155,448.5,794.2307692307693,448.5C805.5769230769231,448.5,805.5769230769231,529,816.9230769230769,529C828.2692307692307,529,828.2692307692307,473,839.6153846153846,473C850.9615384615385,473,850.9615384615385,512.5,862.3076923076923,512.5C873.6538461538462,512.5,873.6538461538462,391.5,885,391.5C896.3461538461538,391.5,896.3461538461538,283,907.6923076923077,283C919.0384615384615,283,919.0384615384615,368,930.3846153846154,368C941.7307692307693,368,941.7307692307693,258.5,953.0769230769231,258.5C964.4230769230769,258.5,964.4230769230769,257.5,975.7692307692307,257.5C987.1153846153845,257.5,987.1153846153845,306.5,998.4615384615385,306.5C1009.8076923076924,306.5,1009.8076923076924,410,1021.1538461538462,410C1032.5,410,1032.5,378.5,1043.8461538461538,378.5C1055.1923076923076,378.5,1055.1923076923076,240,1066.5384615384617,240C1077.8846153846155,240,1077.8846153846155,256.5,1089.2307692307693,256.5C1100.576923076923,256.5,1100.576923076923,235.5,1111.923076923077,235.5C1123.269230769231,235.5,1123.269230769231,560,1134.6153846153848,560C1145.9615384615386,560,1145.9615384615386,463.5,1157.3076923076922,463.5C1168.6538461538462,463.5,1168.6538461538462,520.5,1180,520.5L1180,545C1168.6538461538462,545,1168.6538461538462,540.5,1157.3076923076922,540.5C1145.9615384615386,540.5,1145.9615384615386,560,1134.6153846153848,560C1123.269230769231,560,1123.269230769231,379,1111.923076923077,379C1100.576923076923,379,1100.576923076923,396.5,1089.2307692307693,396.5C1077.8846153846155,396.5,1077.8846153846155,394,1066.5384615384617,394C1055.1923076923076,394,1055.1923076923076,462.5,1043.8461538461538,462.5C1032.5,462.5,1032.5,508,1021.1538461538462,508C1009.8076923076924,508,1009.8076923076924,429,998.4615384615385,429C987.1153846153845,429,987.1153846153845,380,975.7692307692307,380C964.4230769230769,380,964.4230769230769,381,953.0769230769231,381C941.7307692307693,381,941.7307692307693,483.5,930.3846153846154,483.5C919.0384615384615,483.5,919.0384615384615,409,907.6923076923077,409C896.3461538461538,409,896.3461538461538,486,885,486C873.6538461538462,486,873.6538461538462,537,862.3076923076923,537C850.9615384615385,537,850.9615384615385,501,839.6153846153846,501C828.2692307692307,501,828.2692307692307,546.5,816.9230769230769,546.5C805.5769230769231,546.5,805.5769230769231,518.5,794.2307692307693,518.5C782.8846153846155,518.5,782.8846153846155,515,771.5384615384615,515C760.1923076923076,515,760.1923076923076,328.5,748.8461538461538,328.5C737.5,328.5,737.5,359,726.1538461538462,359C714.8076923076924,359,714.8076923076924,394,703.4615384615385,394C692.1153846153845,394,692.1153846153845,487,680.7692307692307,487C669.4230769230769,487,669.4230769230769,521,658.0769230769231,521C646.7307692307693,521,646.7307692307693,544,635.3846153846154,544C624.0384615384615,544,624.0384615384615,473,612.6923076923077,473C601.3461538461538,473,601.3461538461538,508,590,508C578.6538461538462,508,578.6538461538462,511.5,567.3076923076924,511.5C555.9615384615386,511.5,555.9615384615386,559,544.6153846153846,559C533.2692307692307,559,533.2692307692307,508,521.9230769230769,508C510.5769230769231,508,510.5769230769231,402,499.2307692307692,402C487.88461538461536,402,487.88461538461536,474.5,476.53846153846155,474.5C465.19230769230774,474.5,465.19230769230774,412.5,453.84615384615387,412.5C442.5,412.5,442.5,403.5,431.15384615384613,403.5C419.80769230769226,403.5,419.80769230769226,386,408.46153846153845,386C397.11538461538464,386,397.11538461538464,290.5,385.7692307692308,290.5C374.4230769230769,290.5,374.4230769230769,346.5,363.0769230769231,346.5C351.7307692307692,346.5,351.7307692307692,353.5,340.38461538461536,353.5C329.03846153846155,353.5,329.03846153846155,400,317.6923076923077,400C306.3461538461538,400,306.3461538461538,435,295,435C283.6538461538462,435,283.6538461538462,442,272.3076923076923,442C260.96153846153845,442,260.96153846153845,553.5,249.6153846153846,553.5C238.26923076923077,553.5,238.26923076923077,401,226.92307692307693,401C215.5769230769231,401,215.5769230769231,551,204.23076923076923,551C192.8846153846154,551,192.8846153846154,489.5,181.53846153846155,489.5C170.19230769230768,489.5,170.19230769230768,359,158.84615384615384,359C147.5,359,147.5,494,136.15384615384616,494C124.80769230769232,494,124.80769230769232,559,113.46153846153847,559C102.11538461538461,559,102.11538461538461,544,90.76923076923077,544C79.42307692307693,544,79.42307692307693,515,68.07692307692308,515C56.73076923076923,515,56.73076923076923,560,45.38461538461539,560C34.03846153846154,560,34.03846153846154,450,22.692307692307693,450C11.346153846153847,450,11.346153846153847,504.5,0,504.5Z"><title>Video Juegos</title></path><path fill="#ff7f0e" d="M0,505.5C11.346153846153847,505.5,11.346153846153847,451,22.692307692307693,451C34.03846153846154,451,34.03846153846154,389,45.38461538461539,389C56.73076923076923,389,56.73076923076923,402,68.07692307692308,402C79.42307692307693,402,79.42307692307693,374,90.76923076923077,374C102.11538461538461,374,102.11538461538461,413.5,113.46153846153847,413.5C124.80769230769232,413.5,124.80769230769232,356.5,136.15384615384616,356.5C147.5,356.5,147.5,438,158.84615384615384,438C170.19230769230768,438,170.19230769230768,490.5,181.53846153846155,490.5C192.8846153846154,490.5,192.8846153846154,433.5,204.23076923076923,433.5C215.5769230769231,433.5,215.5769230769231,402,226.92307692307693,402C238.26923076923077,402,238.26923076923077,401,249.6153846153846,401C260.96153846153845,401,260.96153846153845,443,272.3076923076923,443C283.6538461538462,443,283.6538461538462,472,295,472C306.3461538461538,472,306.3461538461538,401,317.6923076923077,401C329.03846153846155,401,329.03846153846155,516,340.38461538461536,516C351.7307692307692,516,351.7307692307692,494,363.0769230769231,494C374.4230769230769,494,374.4230769230769,535.5,385.7692307692308,535.5C397.11538461538464,535.5,397.11538461538464,387,408.46153846153845,387C419.80769230769226,387,419.80769230769226,468.5,431.15384615384613,468.5C442.5,468.5,442.5,510,453.84615384615387,510C465.19230769230774,510,465.19230769230774,539.5,476.53846153846155,539.5C487.88461538461536,539.5,487.88461538461536,542.5,499.2307692307692,542.5C510.5769230769231,542.5,510.5769230769231,509,521.9230769230769,509C533.2692307692307,509,533.2692307692307,558,544.6153846153846,558C555.9615384615386,558,555.9615384615386,512.5,567.3076923076924,512.5C578.6538461538462,512.5,578.6538461538462,548.5,590,548.5C601.3461538461538,548.5,601.3461538461538,527.5,612.6923076923077,527.5C624.0384615384615,527.5,624.0384615384615,545,635.3846153846154,545C646.7307692307693,545,646.7307692307693,522,658.0769230769231,522C669.4230769230769,522,669.4230769230769,395,680.7692307692307,395C692.1153846153845,395,692.1153846153845,459,703.4615384615385,459C714.8076923076924,459,714.8076923076924,560,726.1538461538462,560C737.5,560,737.5,560,748.8461538461538,560C760.1923076923076,560,760.1923076923076,559,771.5384615384615,559C782.8846153846155,559,782.8846153846155,560,794.2307692307693,560C805.5769230769231,560,805.5769230769231,558,816.9230769230769,558C828.2692307692307,558,828.2692307692307,560,839.6153846153846,560C850.9615384615385,560,850.9615384615385,560,862.3076923076923,560C873.6538461538462,560,873.6538461538462,560,885,560C896.3461538461538,560,896.3461538461538,560,907.6923076923077,560C919.0384615384615,560,919.0384615384615,559,930.3846153846154,559C941.7307692307693,559,941.7307692307693,560,953.0769230769231,560C964.4230769230769,560,964.4230769230769,559,975.7692307692307,559C987.1153846153845,559,987.1153846153845,560,998.4615384615385,560C1009.8076923076924,560,1009.8076923076924,559,1021.1538461538462,559C1032.5,559,1032.5,560,1043.8461538461538,560C1055.1923076923076,560,1055.1923076923076,559,1066.5384615384617,559C1077.8846153846155,559,1077.8846153846155,554.5,1089.2307692307693,554.5C1100.576923076923,554.5,1100.576923076923,559,1111.923076923077,559C1123.269230769231,559,1123.269230769231,524.5,1134.6153846153848,524.5C1145.9615384615386,524.5,1145.9615384615386,541.5,1157.3076923076922,541.5C1168.6538461538462,541.5,1168.6538461538462,560,1180,560L1180,560C1168.6538461538462,560,1168.6538461538462,555.5,1157.3076923076922,555.5C1145.9615384615386,555.5,1145.9615384615386,538.5,1134.6153846153848,538.5C1123.269230769231,538.5,1123.269230769231,559,1111.923076923077,559C1100.576923076923,559,1100.576923076923,558,1089.2307692307693,558C1077.8846153846155,558,1077.8846153846155,559,1066.5384615384617,559C1055.1923076923076,559,1055.1923076923076,560,1043.8461538461538,560C1032.5,560,1032.5,559,1021.1538461538462,559C1009.8076923076924,559,1009.8076923076924,560,998.4615384615385,560C987.1153846153845,560,987.1153846153845,559,975.7692307692307,559C964.4230769230769,559,964.4230769230769,560,953.0769230769231,560C941.7307692307693,560,941.7307692307693,559,930.3846153846154,559C919.0384615384615,559,919.0384615384615,560,907.6923076923077,560C896.3461538461538,560,896.3461538461538,560,885,560C873.6538461538462,560,873.6538461538462,560,862.3076923076923,560C850.9615384615385,560,850.9615384615385,560,839.6153846153846,560C828.2692307692307,560,828.2692307692307,558,816.9230769230769,558C805.5769230769231,558,805.5769230769231,560,794.2307692307693,560C782.8846153846155,560,782.8846153846155,559,771.5384615384615,559C760.1923076923076,559,760.1923076923076,560,748.8461538461538,560C737.5,560,737.5,560,726.1538461538462,560C714.8076923076924,560,714.8076923076924,497.5,703.4615384615385,497.5C692.1153846153845,497.5,692.1153846153845,447.5,680.7692307692307,447.5C669.4230769230769,447.5,669.4230769230769,553.5,658.0769230769231,553.5C646.7307692307693,553.5,646.7307692307693,559,635.3846153846154,559C624.0384615384615,559,624.0384615384615,552,612.6923076923077,552C601.3461538461538,552,601.3461538461538,555.5,590,555.5C578.6538461538462,555.5,578.6538461538462,540.5,567.3076923076924,540.5C555.9615384615386,540.5,555.9615384615386,558,544.6153846153846,558C533.2692307692307,558,533.2692307692307,540.5,521.9230769230769,540.5C510.5769230769231,540.5,510.5769230769231,560,499.2307692307692,560C487.88461538461536,560,487.88461538461536,553.5,476.53846153846155,553.5C465.19230769230774,553.5,465.19230769230774,548.5,453.84615384615387,548.5C442.5,548.5,442.5,496.5,431.15384615384613,496.5C419.80769230769226,496.5,419.80769230769226,453.5,408.46153846153845,453.5C397.11538461538464,453.5,397.11538461538464,560,385.7692307692308,560C374.4230769230769,560,374.4230769230769,515,363.0769230769231,515C351.7307692307692,515,351.7307692307692,537,340.38461538461536,537C329.03846153846155,537,329.03846153846155,457,317.6923076923077,457C306.3461538461538,457,306.3461538461538,507,295,507C283.6538461538462,507,283.6538461538462,492,272.3076923076923,492C260.96153846153845,492,260.96153846153845,453.5,249.6153846153846,453.5C238.26923076923077,453.5,238.26923076923077,472,226.92307692307693,472C215.5769230769231,472,215.5769230769231,493,204.23076923076923,493C192.8846153846154,493,192.8846153846154,532.5,181.53846153846155,532.5C170.19230769230768,532.5,170.19230769230768,483.5,158.84615384615384,483.5C147.5,483.5,147.5,433.5,136.15384615384616,433.5C124.80769230769232,433.5,124.80769230769232,553.5,113.46153846153847,553.5C102.11538461538461,553.5,102.11538461538461,496.5,90.76923076923077,496.5C79.42307692307693,496.5,79.42307692307693,468.5,68.07692307692308,468.5C56.73076923076923,468.5,56.73076923076923,434.5,45.38461538461539,434.5C34.03846153846154,434.5,34.03846153846154,486,22.692307692307693,486C11.346153846153847,486,11.346153846153847,540.5,0,540.5Z"><title>Auto</title></path><path fill="#7f7f7f" d="M0,553C11.346153846153847,553,11.346153846153847,553,22.692307692307693,553C34.03846153846154,553,34.03846153846154,560,45.38461538461539,560C56.73076923076923,560,56.73076923076923,560,68.07692307692308,560C79.42307692307693,560,79.42307692307693,560,90.76923076923077,560C102.11538461538461,560,102.11538461538461,558,113.46153846153847,558C124.80769230769232,558,124.80769230769232,559,136.15384615384616,559C147.5,559,147.5,560,158.84615384615384,560C170.19230769230768,560,170.19230769230768,559,181.53846153846155,559C192.8846153846154,559,192.8846153846154,559,204.23076923076923,559C215.5769230769231,559,215.5769230769231,559,226.92307692307693,559C238.26923076923077,559,238.26923076923077,559,249.6153846153846,559C260.96153846153845,559,260.96153846153845,555.5,272.3076923076923,555.5C283.6538461538462,555.5,283.6538461538462,541.5,295,541.5C306.3461538461538,541.5,306.3461538461538,544,317.6923076923077,544C329.03846153846155,544,329.03846153846155,404.5,340.38461538461536,404.5C351.7307692307692,404.5,351.7307692307692,534.5,363.0769230769231,534.5C374.4230769230769,534.5,374.4230769230769,477.5,385.7692307692308,477.5C397.11538461538464,477.5,397.11538461538464,552,408.46153846153845,552C419.80769230769226,552,419.80769230769226,497.5,431.15384615384613,497.5C442.5,497.5,442.5,560,453.84615384615387,560C465.19230769230774,560,465.19230769230774,559,476.53846153846155,559C487.88461538461536,559,487.88461538461536,488,499.2307692307692,488C510.5769230769231,488,510.5769230769231,556.5,521.9230769230769,556.5C533.2692307692307,556.5,533.2692307692307,557,544.6153846153846,557C555.9615384615386,557,555.9615384615386,541.5,567.3076923076924,541.5C578.6538461538462,541.5,578.6538461538462,556.5,590,556.5C601.3461538461538,556.5,601.3461538461538,553,612.6923076923077,553C624.0384615384615,553,624.0384615384615,560,635.3846153846154,560C646.7307692307693,560,646.7307692307693,554.5,658.0769230769231,554.5C669.4230769230769,554.5,669.4230769230769,560,680.7692307692307,560C692.1153846153845,560,692.1153846153845,556.5,703.4615384615385,556.5C714.8076923076924,556.5,714.8076923076924,548.5,726.1538461538462,548.5C737.5,548.5,737.5,542.5,748.8461538461538,542.5C760.1923076923076,542.5,760.1923076923076,516,771.5384615384615,516C782.8846153846155,516,782.8846153846155,519.5,794.2307692307693,519.5C805.5769230769231,519.5,805.5769230769231,547.5,816.9230769230769,547.5C828.2692307692307,547.5,828.2692307692307,531,839.6153846153846,531C850.9615384615385,531,850.9615384615385,553,862.3076923076923,553C873.6538461538462,553,873.6538461538462,560,885,560C896.3461538461538,560,896.3461538461538,553,907.6923076923077,553C919.0384615384615,553,919.0384615384615,555.5,930.3846153846154,555.5C941.7307692307693,555.5,941.7307692307693,556.5,953.0769230769231,556.5C964.4230769230769,556.5,964.4230769230769,555.5,975.7692307692307,555.5C987.1153846153845,555.5,987.1153846153845,552,998.4615384615385,552C1009.8076923076924,552,1009.8076923076924,559,1021.1538461538462,559C1032.5,559,1032.5,560,1043.8461538461538,560C1055.1923076923076,560,1055.1923076923076,558,1066.5384615384617,558C1077.8846153846155,558,1077.8846153846155,559,1089.2307692307693,559C1100.576923076923,559,1100.576923076923,554.5,1111.923076923077,554.5C1123.269230769231,554.5,1123.269230769231,559,1134.6153846153848,559C1145.9615384615386,559,1145.9615384615386,556.5,1157.3076923076922,556.5C1168.6538461538462,556.5,1168.6538461538462,560,1180,560L1180,560C1168.6538461538462,560,1168.6538461538462,560,1157.3076923076922,560C1145.9615384615386,560,1145.9615384615386,559,1134.6153846153848,559C1123.269230769231,559,1123.269230769231,558,1111.923076923077,558C1100.576923076923,558,1100.576923076923,559,1089.2307692307693,559C1077.8846153846155,559,1077.8846153846155,558,1066.5384615384617,558C1055.1923076923076,558,1055.1923076923076,560,1043.8461538461538,560C1032.5,560,1032.5,559,1021.1538461538462,559C1009.8076923076924,559,1009.8076923076924,555.5,998.4615384615385,555.5C987.1153846153845,555.5,987.1153846153845,559,975.7692307692307,559C964.4230769230769,559,964.4230769230769,560,953.0769230769231,560C941.7307692307693,560,941.7307692307693,559,930.3846153846154,559C919.0384615384615,559,919.0384615384615,560,907.6923076923077,560C896.3461538461538,560,896.3461538461538,560,885,560C873.6538461538462,560,873.6538461538462,560,862.3076923076923,560C850.9615384615385,560,850.9615384615385,545,839.6153846153846,545C828.2692307692307,545,828.2692307692307,558,816.9230769230769,558C805.5769230769231,558,805.5769230769231,544,794.2307692307693,544C782.8846153846155,544,782.8846153846155,537,771.5384615384615,537C760.1923076923076,537,760.1923076923076,560,748.8461538461538,560C737.5,560,737.5,555.5,726.1538461538462,555.5C714.8076923076924,555.5,714.8076923076924,560,703.4615384615385,560C692.1153846153845,560,692.1153846153845,560,680.7692307692307,560C669.4230769230769,560,669.4230769230769,558,658.0769230769231,558C646.7307692307693,558,646.7307692307693,560,635.3846153846154,560C624.0384615384615,560,624.0384615384615,560,612.6923076923077,560C601.3461538461538,560,601.3461538461538,560,590,560C578.6538461538462,560,578.6538461538462,555.5,567.3076923076924,555.5C555.9615384615386,555.5,555.9615384615386,557,544.6153846153846,557C533.2692307692307,557,533.2692307692307,560,521.9230769230769,560C510.5769230769231,560,510.5769230769231,516,499.2307692307692,516C487.88461538461536,516,487.88461538461536,559,476.53846153846155,559C465.19230769230774,559,465.19230769230774,560,453.84615384615387,560C442.5,560,442.5,515,431.15384615384613,515C419.80769230769226,515,419.80769230769226,559,408.46153846153845,559C397.11538461538464,559,397.11538461538464,505.5,385.7692307692308,505.5C374.4230769230769,505.5,374.4230769230769,548.5,363.0769230769231,548.5C351.7307692307692,548.5,351.7307692307692,450,340.38461538461536,450C329.03846153846155,450,329.03846153846155,551,317.6923076923077,551C306.3461538461538,551,306.3461538461538,552,295,552C283.6538461538462,552,283.6538461538462,559,272.3076923076923,559C260.96153846153845,559,260.96153846153845,559,249.6153846153846,559C238.26923076923077,559,238.26923076923077,559,226.92307692307693,559C215.5769230769231,559,215.5769230769231,559,204.23076923076923,559C192.8846153846154,559,192.8846153846154,559,181.53846153846155,559C170.19230769230768,559,170.19230769230768,560,158.84615384615384,560C147.5,560,147.5,559,136.15384615384616,559C124.80769230769232,559,124.80769230769232,558,113.46153846153847,558C102.11538461538461,558,102.11538461538461,560,90.76923076923077,560C79.42307692307693,560,79.42307692307693,560,68.07692307692308,560C56.73076923076923,560,56.73076923076923,560,45.38461538461539,560C34.03846153846154,560,34.03846153846154,560,22.692307692307693,560C11.346153846153847,560,11.346153846153847,560,0,560Z"><title>Trabajando</title></path><path fill="#e377c2" d="M0,541.5C11.346153846153847,541.5,11.346153846153847,516,22.692307692307693,516C34.03846153846154,516,34.03846153846154,328.5,45.38461538461539,328.5C56.73076923076923,328.5,56.73076923076923,556.5,68.07692307692308,556.5C79.42307692307693,556.5,79.42307692307693,545,90.76923076923077,545C102.11538461538461,545,102.11538461538461,554.5,113.46153846153847,554.5C124.80769230769232,554.5,124.80769230769232,495,136.15384615384616,495C147.5,495,147.5,484.5,158.84615384615384,484.5C170.19230769230768,484.5,170.19230769230768,548.5,181.53846153846155,548.5C192.8846153846154,548.5,192.8846153846154,494,204.23076923076923,494C215.5769230769231,494,215.5769230769231,473,226.92307692307693,473C238.26923076923077,473,238.26923076923077,454.5,249.6153846153846,454.5C260.96153846153845,454.5,260.96153846153845,537,272.3076923076923,537C283.6538461538462,537,283.6538461538462,436,295,436C306.3461538461538,436,306.3461538461538,511.5,317.6923076923077,511.5C329.03846153846155,511.5,329.03846153846155,354.5,340.38461538461536,354.5C351.7307692307692,354.5,351.7307692307692,347.5,363.0769230769231,347.5C374.4230769230769,347.5,374.4230769230769,291.5,385.7692307692308,291.5C397.11538461538464,291.5,397.11538461538464,454.5,408.46153846153845,454.5C419.80769230769226,454.5,419.80769230769226,404.5,431.15384615384613,404.5C442.5,404.5,442.5,413.5,453.84615384615387,413.5C465.19230769230774,413.5,465.19230769230774,475.5,476.53846153846155,475.5C487.88461538461536,475.5,487.88461538461536,403,499.2307692307692,403C510.5769230769231,403,510.5769230769231,541.5,521.9230769230769,541.5C533.2692307692307,541.5,533.2692307692307,531.5,544.6153846153846,531.5C555.9615384615386,531.5,555.9615384615386,342.5,567.3076923076924,342.5C578.6538461538462,342.5,578.6538461538462,279.5,590,279.5C601.3461538461538,279.5,601.3461538461538,237.5,612.6923076923077,237.5C624.0384615384615,237.5,624.0384615384615,410,635.3846153846154,410C646.7307692307693,410,646.7307692307693,239,658.0769230769231,239C669.4230769230769,239,669.4230769230769,488,680.7692307692307,488C692.1153846153845,488,692.1153846153845,395,703.4615384615385,395C714.8076923076924,395,714.8076923076924,462.5,726.1538461538462,462.5C737.5,462.5,737.5,329.5,748.8461538461538,329.5C760.1923076923076,329.5,760.1923076923076,360,771.5384615384615,360C782.8846153846155,360,782.8846153846155,240,794.2307692307693,240C805.5769230769231,240,805.5769230769231,341.5,816.9230769230769,341.5C828.2692307692307,341.5,828.2692307692307,306.5,839.6153846153846,306.5C850.9615384615385,306.5,850.9615384615385,261,862.3076923076923,261C873.6538461538462,261,873.6538461538462,296,885,296C896.3461538461538,296,896.3461538461538,410,907.6923076923077,410C919.0384615384615,410,919.0384615384615,241,930.3846153846154,241C941.7307692307693,241,941.7307692307693,382,953.0769230769231,382C964.4230769230769,382,964.4230769230769,466,975.7692307692307,466C987.1153846153845,466,987.1153846153845,490.5,998.4615384615385,490.5C1009.8076923076924,490.5,1009.8076923076924,509,1021.1538461538462,509C1032.5,509,1032.5,463.5,1043.8461538461538,463.5C1055.1923076923076,463.5,1055.1923076923076,395,1066.5384615384617,395C1077.8846153846155,395,1077.8846153846155,472,1089.2307692307693,472C1100.576923076923,472,1100.576923076923,472,1111.923076923077,472C1123.269230769231,472,1123.269230769231,474.5,1134.6153846153848,474.5C1145.9615384615386,474.5,1145.9615384615386,385.5,1157.3076923076922,385.5C1168.6538461538462,385.5,1168.6538461538462,546,1180,546L1180,560C1168.6538461538462,560,1168.6538461538462,462.5,1157.3076923076922,462.5C1145.9615384615386,462.5,1145.9615384615386,523.5,1134.6153846153848,523.5C1123.269230769231,523.5,1123.269230769231,542,1111.923076923077,542C1100.576923076923,542,1100.576923076923,524.5,1089.2307692307693,524.5C1077.8846153846155,524.5,1077.8846153846155,461.5,1066.5384615384617,461.5C1055.1923076923076,461.5,1055.1923076923076,519.5,1043.8461538461538,519.5C1032.5,519.5,1032.5,554.5,1021.1538461538462,554.5C1009.8076923076924,554.5,1009.8076923076924,532.5,998.4615384615385,532.5C987.1153846153845,532.5,987.1153846153845,546.5,975.7692307692307,546.5C964.4230769230769,546.5,964.4230769230769,466,953.0769230769231,466C941.7307692307693,466,941.7307692307693,367,930.3846153846154,367C919.0384615384615,367,919.0384615384615,480,907.6923076923077,480C896.3461538461538,480,896.3461538461538,390.5,885,390.5C873.6538461538462,390.5,873.6538461538462,369.5,862.3076923076923,369.5C850.9615384615385,369.5,850.9615384615385,432.5,839.6153846153846,432.5C828.2692307692307,432.5,828.2692307692307,439.5,816.9230769230769,439.5C805.5769230769231,439.5,805.5769230769231,359,794.2307692307693,359C782.8846153846155,359,782.8846153846155,444,771.5384615384615,444C760.1923076923076,444,760.1923076923076,427.5,748.8461538461538,427.5C737.5,427.5,737.5,532.5,726.1538461538462,532.5C714.8076923076924,532.5,714.8076923076924,458,703.4615384615385,458C692.1153846153845,458,692.1153846153845,523,680.7692307692307,523C669.4230769230769,523,669.4230769230769,361.5,658.0769230769231,361.5C646.7307692307693,361.5,646.7307692307693,487,635.3846153846154,487C624.0384615384615,487,624.0384615384615,381,612.6923076923077,381C601.3461538461538,381,601.3461538461538,402,590,402C578.6538461538462,402,578.6538461538462,430,567.3076923076924,430C555.9615384615386,430,555.9615384615386,556,544.6153846153846,556C533.2692307692307,556,533.2692307692307,555.5,521.9230769230769,555.5C510.5769230769231,555.5,510.5769230769231,487,499.2307692307692,487C487.88461538461536,487,487.88461538461536,538.5,476.53846153846155,538.5C465.19230769230774,538.5,465.19230769230774,462.5,453.84615384615387,462.5C442.5,462.5,442.5,467.5,431.15384615384613,467.5C419.80769230769226,467.5,419.80769230769226,500,408.46153846153845,500C397.11538461538464,500,397.11538461538464,337,385.7692307692308,337C374.4230769230769,337,374.4230769230769,410.5,363.0769230769231,410.5C351.7307692307692,410.5,351.7307692307692,403.5,340.38461538461536,403.5C329.03846153846155,403.5,329.03846153846155,543,317.6923076923077,543C306.3461538461538,543,306.3461538461538,471,295,471C283.6538461538462,471,283.6538461538462,554.5,272.3076923076923,554.5C260.96153846153845,554.5,260.96153846153845,503.5,249.6153846153846,503.5C238.26923076923077,503.5,238.26923076923077,511.5,226.92307692307693,511.5C215.5769230769231,511.5,215.5769230769231,522,204.23076923076923,522C192.8846153846154,522,192.8846153846154,559,181.53846153846155,559C170.19230769230768,559,170.19230769230768,519.5,158.84615384615384,519.5C147.5,519.5,147.5,530,136.15384615384616,530C124.80769230769232,530,124.80769230769232,558,113.46153846153847,558C102.11538461538461,558,102.11538461538461,555.5,90.76923076923077,555.5C79.42307692307693,555.5,79.42307692307693,560,68.07692307692308,560C56.73076923076923,560,56.73076923076923,388,45.38461538461539,388C34.03846153846154,388,34.03846153846154,537,22.692307692307693,537C11.346153846153847,537,11.346153846153847,552,0,552Z"><title>Relajando</title></path></g><g id="xAxis" transform="translate(0,560)" fill="none" font-size="10" font-family="sans-serif" text-anchor="middle"><path class="domain" stroke="currentColor" d="M0,0H1180"/><g class="tick" opacity="1" transform="translate(90.76923076923077,0)"><line stroke="currentColor" y2="6"/><text fill="currentColor" y="9" dy="0.71em">5</text></g><g class="tick" opacity="1" transform="translate(204.23076923076923,0)"><line stroke="currentColor" y2="6"/><text fill="currentColor" y="9" dy="0.71em">10</text></g><g class="tick" opacity="1" transform="translate(317.6923076923077,0)"><line stroke="currentColor" y2="6"/><text fill="currentColor" y="9" dy="0.71em">15</text></g><g class="tick" opacity="1" transform="translate(431.15384615384613,0)"><line stroke="currentColor" y2="6"/><text fill="currentColor" y="9" dy="0.71em">20</text></g><g class="tick" opacity="1" transform="translate(544.6153846153846,0)"><line stroke="currentColor" y2="6"/><text fill="currentColor" y="9" dy="0.71em">25</text></g><g class="tick" opacity="1" transform="translate(658.0769230769231,0)"><line stroke="currentColor" y2="6"/><text fill="currentColor" y="9" dy="0.71em">30</text></g><g class="tick" opacity="1" transform="translate(771.5384615384615,0)"><line stroke="currentColor" y2="6"/><text fill="currentColor" y="9" dy="0.71em">35</text></g><g class="tick" opacity="1" transform="translate(885,0)"><line stroke="currentColor" y2="6"/><text fill="currentColor" y="9" dy="0.71em">40</text></g><g class="tick" opacity="1" transform="translate(998.4615384615385,0)"><line stroke="currentColor" y2="6"/><text fill="currentColor" y="9" dy="0.71em">45</text></g><g class="tick" opacity="1" transform="translate(1111.923076923077,0)"><line stroke="currentColor" y2="6"/><text fill="currentColor" y="9" dy="0.71em">50</text></g></g><text y="556" x="1180" text-anchor="end" style="font-family: Arial, sans-serif; font-size: 12px; fill: rgb(123, 123, 123); font-weight: bold;">Semana</text><text x="4" text-anchor="start" dominant-baseline="hanging" style="font-family: Arial, sans-serif; font-size: 12px; fill: rgb(123, 123, 123); font-weight: bold;">Horas</text><g id="labels"><text x="544.6153846153846" y="415" text-anchor="middle" alignment-baseline="middle" style="font-family: Arial, sans-serif; font-size: 10px; fill: black; font-weight: bold;">Dormir</text><text x="272.3076923076923" y="283.5" text-anchor="middle" alignment-baseline="middle" style="font-family: Arial, sans-serif; font-size: 10px; fill: black; font-weight: bold;">Colegio</text><text x="1043.8461538461538" y="307.5" text-anchor="middle" alignment-baseline="middle" style="font-family: Arial, sans-serif; font-size: 10px; fill: black; font-weight: bold;">Estudio</text><text x="0" y="428.25" text-anchor="start" alignment-baseline="middle" style="font-family: Arial, sans-serif; font-size: 10px; fill: black; font-weight: bold;">Novia</text><text x="544.6153846153846" y="146.25" text-anchor="middle" alignment-baseline="middle" style="font-family: Arial, sans-serif; font-size: 10px; fill: black; font-weight: bold;">Amigos</text><text x="1066.5384615384617" y="317" text-anchor="middle" alignment-baseline="middle" style="font-family: Arial, sans-serif; font-size: 10px; fill: black; font-weight: bold;">Video Juegos</text><text x="113.46153846153847" y="483.5" text-anchor="middle" alignment-baseline="middle" style="font-family: Arial, sans-serif; font-size: 10px; fill: black; font-weight: bold;">Auto</text><text x="340.38461538461536" y="427.25" text-anchor="middle" alignment-baseline="middle" style="font-family: Arial, sans-serif; font-size: 10px; fill: black; font-weight: bold;">Trabajando</text><text x="612.6923076923077" y="309.25" text-anchor="middle" alignment-baseline="middle" style="font-family: Arial, sans-serif; font-size: 10px; fill: black; font-weight: bold;">Relajando</text></g></g><text x="4" y="4" style="font-family: Arial, sans-serif; font-size: 12px; fill: black; font-weight: bold; dominant-baseline: hanging;"/></g></g><g id="legend" transform="translate(1200,20)"><g transform="translate(5,0)"><g class="legendColor" transform="translate(0,0)"><g class="legendCells" transform="translate(0,15.833333015441895)"><g class="cell" transform="translate(0, 0)"><rect class="swatch" height="15" width="15" style="fill: rgb(31, 119, 180);"/><text class="label" transform="translate( 19.999999046325684, 12.499999523162842)" font-family="&quot;Arial&quot;, sans-serif" font-size="10px"><tspan x="0" dy="0em">Amigos</tspan></text></g><g class="cell" transform="translate(0, 20.833333015441895)"><rect class="swatch" height="15" width="15" style="fill: rgb(255, 127, 14);"/><text class="label" transform="translate( 19.999999046325684, 12.499999523162842)" font-family="&quot;Arial&quot;, sans-serif" font-size="10px"><tspan x="0" dy="0em">Auto</tspan></text></g><g class="cell" transform="translate(0, 41.66666603088379)"><rect class="swatch" height="15" width="15" style="fill: rgb(44, 160, 44);"/><text class="label" transform="translate( 19.999999046325684, 12.499999523162842)" font-family="&quot;Arial&quot;, sans-serif" font-size="10px"><tspan x="0" dy="0em">Colegio</tspan></text></g><g class="cell" transform="translate(0, 62.499999046325684)"><rect class="swatch" height="15" width="15" style="fill: rgb(214, 39, 40);"/><text class="label" transform="translate( 19.999999046325684, 12.499999523162842)" font-family="&quot;Arial&quot;, sans-serif" font-size="10px"><tspan x="0" dy="0em">Dormir</tspan></text></g><g class="cell" transform="translate(0, 83.33333206176758)"><rect class="swatch" height="15" width="15" style="fill: rgb(148, 103, 189);"/><text class="label" transform="translate( 19.999999046325684, 12.499999523162842)" font-family="&quot;Arial&quot;, sans-serif" font-size="10px"><tspan x="0" dy="0em">Estudio</tspan></text></g><g class="cell" transform="translate(0, 104.16666507720947)"><rect class="swatch" height="15" width="15" style="fill: rgb(140, 86, 75);"/><text class="label" transform="translate( 19.999999046325684, 12.499999523162842)" font-family="&quot;Arial&quot;, sans-serif" font-size="10px"><tspan x="0" dy="0em">Novia</tspan></text></g><g class="cell" transform="translate(0, 124.99999809265137)"><rect class="swatch" height="15" width="15" style="fill: rgb(227, 119, 194);"/><text class="label" transform="translate( 19.999999046325684, 12.499999523162842)" font-family="&quot;Arial&quot;, sans-serif" font-size="10px"><tspan x="0" dy="0em">Relajando</tspan></text></g><g class="cell" transform="translate(0, 145.83333110809326)"><rect class="swatch" height="15" width="15" style="fill: rgb(127, 127, 127);"/><text class="label" transform="translate( 19.999999046325684, 12.499999523162842)" font-family="&quot;Arial&quot;, sans-serif" font-size="10px"><tspan x="0" dy="0em">Trabajando</tspan></text></g><g class="cell" transform="translate(0, 166.66666412353516)"><rect class="swatch" height="15" width="15" style="fill: rgb(188, 189, 34);"/><text class="label" transform="translate( 19.999999046325684, 12.499999523162842)" font-family="&quot;Arial&quot;, sans-serif" font-size="10px"><tspan x="0" dy="0em">Video Juegos</tspan></text></g></g><text class="legendTitle" font-family="&quot;Arial&quot;, sans-serif" font-size="12px" font-weight="bold"><tspan x="0" dy="0em">Colors</tspan></text></g></g></g></svg>